<?xml version="1.0" encoding="utf-8"?>
<!-- Generator: Adobe Illustrator 23.0.1, SVG Export Plug-In . SVG Version: 6.00 Build 0)  -->
<svg version="1.1" id="Layer_1" xmlns="http://www.w3.org/2000/svg" xmlns:xlink="http://www.w3.org/1999/xlink" x="0px" y="0px"
	 viewBox="0 0 595.28 506.89" style="enable-background:new 0 0 595.28 506.89;" xml:space="preserve">
<style type="text/css">
	.st0{fill:#1DB954;}
	.st1{fill:#FFFFFF;}
	.st2{stroke:#000000;stroke-miterlimit:10;}
</style>
<g>
	<circle class="st1" cx="297.64" cy="253.45" r="212.94"/>
	<g>
		<g>
			<g>
				<path class="st0" d="M439.79,271.49c-0.09,4.47-3.14,7.9-7.43,9.34c-1.56,0.51-3.16,1.51-4.28,2.71
					c-5.81,6.17-12.82,9.85-21.26,10.58c-0.76,0.07-6.03,0.23-7.39-0.01c1.1-3.68,1.99-7.46,2.67-11.34
					c7.43-42.51-5.95-77.99-39.71-104.66c-56.01-44.25-145.51-21.43-167.58,56.85c-5.36,19-4.96,38.11,0.46,57.1
					c0.13,0.46,0.24,0.93,0.47,1.87c-10.18,1.24-18.73-1.45-26.06-7.97c-2.61-2.31-4.77-4.87-8.46-5.98
					c-3.85-1.17-5.76-4.67-5.8-8.83c-0.05-5.83-0.08-11.67,0-17.5c0.08-5.06,3.21-8.64,8.21-9.89c1.05-0.26,2.16-0.95,2.87-1.77
					c4.67-5.4,10.35-9.16,17.36-10.68c1.72-0.38,2.34-1.31,2.84-2.88c9.19-28.96,26.88-51.16,53.12-66.48
					c1.86-1.08,2.03-2.05,1.07-3.75c-0.78-1.36-1.34-2.86-1.98-4.31c-0.02-0.05-0.03-0.1-0.04-0.16c-0.01-0.06-0.01-0.11-0.01-0.17
					v-0.23c33.87-19.83,85.23-19.05,117.56,0.12c-0.61,1.39-1.1,2.91-1.89,4.23c-1.3,2.17-0.85,3.29,1.39,4.6
					c22.61,13.21,38.95,31.95,48.99,56.14c1.36,3.27,2.59,6.64,3.58,10.04c0.52,1.8,1.45,2.5,3.18,2.91
					c6.77,1.57,12.28,5.2,16.87,10.41c0.83,0.94,2.14,1.7,3.36,2.04c4.46,1.2,7.7,4.69,7.82,9.29
					C439.93,259.23,439.91,265.37,439.79,271.49z"/>
			</g>
			<g>
				<g>
					<g>
						<line class="st2" x1="339.12" y1="269.79" x2="348.63" y2="269.79"/>
						<path class="st0" d="M348.63,270.89h-9.51c-0.6,0-1.1-0.49-1.1-1.1s0.49-1.1,1.1-1.1h9.51c0.6,0,1.1,0.49,1.1,1.1
							S349.23,270.89,348.63,270.89z"/>
					</g>
					<g>
						<line class="st2" x1="339.12" y1="274.03" x2="348.63" y2="274.03"/>
						<path class="st0" d="M348.63,275.13h-9.51c-0.6,0-1.1-0.49-1.1-1.1s0.49-1.1,1.1-1.1h9.51c0.6,0,1.1,0.49,1.1,1.1
							S349.23,275.13,348.63,275.13z"/>
					</g>
					<g>
						<line class="st2" x1="339.17" y1="278.27" x2="348.67" y2="278.27"/>
						<path class="st0" d="M348.67,279.37h-9.51c-0.6,0-1.1-0.49-1.1-1.1s0.49-1.1,1.1-1.1h9.51c0.6,0,1.1,0.49,1.1,1.1
							S349.28,279.37,348.67,279.37z"/>
					</g>
				</g>
				<g>
					<g>
						<path class="st2" d="M209.39,265.76c-1.29,0-2.39,0.45-3.31,1.36c-0.91,0.91-1.36,2.01-1.36,3.29v2.34
							c0,0.53,0.26,0.79,0.77,0.79h19.45c0.43,0,0.8,0.15,1.1,0.45c0.31,0.3,0.47,0.66,0.47,1.1s-0.16,0.8-0.47,1.1
							c-0.3,0.31-0.66,0.47-1.1,0.47h-19.45c-0.52,0-0.77,0.26-0.77,0.77v10.1c0,0.43-0.15,0.81-0.45,1.12
							c-0.31,0.3-0.68,0.45-1.1,0.45c-0.43,0-0.81-0.15-1.12-0.45c-0.3-0.31-0.45-0.68-0.45-1.12v-17.11c0-2.14,0.76-3.97,2.28-5.49
							c1.52-1.52,3.35-2.28,5.51-2.28h15.55c0.43,0,0.8,0.15,1.1,0.45c0.31,0.31,0.47,0.68,0.47,1.1c0,0.43-0.16,0.8-0.47,1.1
							c-0.3,0.31-0.66,0.47-1.1,0.47H209.39z"/>
						<path class="st2" d="M203.17,289.59c-0.56,0-1.06-0.2-1.46-0.59c-0.4-0.42-0.6-0.91-0.6-1.48v-17.11
							c0-2.27,0.81-4.23,2.42-5.84c1.61-1.61,3.58-2.42,5.86-2.42h15.55c0.57,0,1.06,0.2,1.45,0.59c0.41,0.41,0.61,0.9,0.61,1.45
							c0,0.57-0.21,1.06-0.62,1.46c-0.38,0.4-0.87,0.61-1.44,0.61h-15.55c-1.16,0-2.13,0.4-2.96,1.22
							c-0.82,0.81-1.21,1.78-1.21,2.94v2.34c0,0.27,0.05,0.29,0.27,0.29h19.45c0.57,0,1.06,0.2,1.45,0.59
							c0.41,0.39,0.61,0.88,0.61,1.45c0,0.57-0.21,1.06-0.62,1.46c-0.38,0.4-0.87,0.61-1.44,0.61h-19.45
							c-0.24,0-0.27,0.03-0.27,0.27v10.1c0,0.56-0.2,1.06-0.59,1.46C204.21,289.39,203.72,289.59,203.17,289.59z M209.39,263.15
							c-2.04,0-3.72,0.7-5.15,2.13c-1.43,1.43-2.13,3.11-2.13,5.13v17.11c0,0.31,0.1,0.55,0.31,0.77c0.4,0.38,1.06,0.42,1.51-0.02
							c0.19-0.2,0.29-0.45,0.29-0.76v-10.1c0-0.8,0.48-1.27,1.27-1.27h19.45c0.3,0,0.53-0.1,0.74-0.31
							c0.23-0.22,0.33-0.45,0.33-0.75c0-0.3-0.1-0.53-0.31-0.74c-0.21-0.21-0.45-0.31-0.75-0.31h-19.45c-0.8,0-1.27-0.48-1.27-1.29
							v-2.34c0-1.42,0.51-2.65,1.51-3.65c1.02-1,2.25-1.51,3.67-1.51h15.55c0.3,0,0.53-0.1,0.74-0.31c0.23-0.22,0.33-0.45,0.33-0.75
							c0-0.29-0.1-0.52-0.32-0.74c-0.21-0.21-0.44-0.3-0.74-0.3H209.39z"/>
					</g>
					<g>
						<path class="st2" d="M256.4,263.22c0.31-0.38,0.72-0.57,1.22-0.57h1.24c0.43,0,0.8,0.15,1.1,0.45
							c0.31,0.31,0.47,0.68,0.47,1.1v23.33c0,0.43-0.16,0.81-0.47,1.12c-0.3,0.3-0.66,0.45-1.1,0.45c-0.42,0-0.79-0.15-1.1-0.45
							c-0.3-0.31-0.45-0.68-0.45-1.12v-19.55c0-0.15-0.07-0.25-0.2-0.3c-0.15-0.04-0.27-0.01-0.37,0.1l-9.72,12.15
							c-0.16,0.2-0.37,0.3-0.61,0.3c-0.24,0-0.45-0.1-0.61-0.3l-9.74-12.15c-0.08-0.11-0.2-0.14-0.35-0.1
							c-0.14,0.05-0.2,0.16-0.2,0.3v19.55c0,0.43-0.15,0.81-0.45,1.12c-0.31,0.3-0.68,0.45-1.1,0.45c-0.43,0-0.81-0.15-1.12-0.45
							c-0.3-0.31-0.45-0.68-0.45-1.12v-23.33c0-0.42,0.15-0.79,0.45-1.1c0.31-0.3,0.68-0.45,1.12-0.45h1.24
							c0.5,0,0.91,0.19,1.22,0.57l9.37,11.73c0.16,0.2,0.37,0.3,0.61,0.3c0.24,0,0.45-0.1,0.61-0.3L256.4,263.22z"/>
						<path class="st2" d="M258.86,289.59c-0.55,0-1.04-0.2-1.44-0.59c-0.4-0.42-0.6-0.91-0.6-1.48v-19.04l-9.39,11.75
							c-0.52,0.64-1.49,0.64-2,0l-9.39-11.73v19.02c0,0.56-0.2,1.06-0.59,1.46c-0.85,0.82-2.12,0.78-2.92,0.02
							c-0.4-0.42-0.6-0.91-0.6-1.48v-23.33c0-0.55,0.2-1.04,0.59-1.44c0.42-0.4,0.91-0.6,1.48-0.6h1.24c0.65,0,1.2,0.26,1.61,0.75
							l9.37,11.73c0.16,0.19,0.28,0.19,0.44,0l9.37-11.73c0.4-0.49,0.96-0.75,1.61-0.75h1.24c0.57,0,1.06,0.2,1.45,0.59
							c0.41,0.41,0.61,0.9,0.61,1.45v23.33c0,0.57-0.21,1.06-0.61,1.47C259.92,289.39,259.43,289.59,258.86,289.59z M257,267.15
							c0.08,0,0.16,0.01,0.25,0.03c0.38,0.15,0.57,0.44,0.57,0.79v19.55c0,0.31,0.1,0.55,0.31,0.77c0.42,0.4,1.08,0.4,1.48-0.01
							c0.22-0.22,0.32-0.46,0.32-0.76v-23.33c0-0.29-0.1-0.52-0.32-0.74c-0.21-0.21-0.44-0.3-0.74-0.3h-1.24
							c-0.35,0-0.62,0.12-0.83,0.38l-9.37,11.72c-0.52,0.64-1.49,0.64-2,0l-9.37-11.73c-0.21-0.26-0.48-0.38-0.83-0.38h-1.24
							c-0.31,0-0.55,0.1-0.77,0.31c-0.19,0.2-0.29,0.44-0.29,0.74v23.33c0,0.31,0.1,0.55,0.31,0.77c0.4,0.38,1.06,0.42,1.51-0.02
							c0.19-0.2,0.29-0.45,0.29-0.76v-19.55c0-0.35,0.19-0.64,0.52-0.77c0.4-0.11,0.73-0.01,0.93,0.27l9.73,12.14
							c0.16,0.19,0.28,0.19,0.44,0l9.71-12.15C256.53,267.25,256.76,267.15,257,267.15z M235.69,268.08
							C235.69,268.08,235.69,268.08,235.69,268.08L235.69,268.08z"/>
					</g>
					<g>
						<path class="st2" d="M267.22,289.09c-0.24,0-0.45-0.09-0.61-0.26c-0.18-0.16-0.26-0.37-0.26-0.61v-1.36
							c0-0.24,0.09-0.45,0.26-0.63c0.16-0.16,0.37-0.24,0.61-0.24h1.36c0.24,0,0.45,0.08,0.63,0.24c0.16,0.18,0.24,0.39,0.24,0.63
							v1.36c0,0.24-0.08,0.45-0.24,0.61c-0.18,0.18-0.39,0.26-0.63,0.26H267.22z"/>
						<path class="st2" d="M268.58,289.59h-1.36c-0.38,0-0.72-0.15-0.98-0.43c-0.25-0.23-0.4-0.57-0.4-0.95v-1.36
							c0-0.37,0.14-0.71,0.41-0.98c0.26-0.26,0.59-0.39,0.96-0.39h1.36c0.37,0,0.7,0.13,0.97,0.38c0.27,0.3,0.41,0.63,0.41,1v1.36
							c0,0.37-0.14,0.71-0.39,0.96C269.29,289.45,268.95,289.59,268.58,289.59z M267.22,286.48c-0.11,0-0.19,0.03-0.26,0.1
							c-0.08,0.08-0.12,0.17-0.12,0.28v1.36c0,0.1,0.03,0.17,0.1,0.24c0.1,0.1,0.17,0.13,0.27,0.13h1.36c0.11,0,0.19-0.04,0.28-0.12
							c0.07-0.07,0.1-0.15,0.1-0.26v-1.36c0-0.12-0.03-0.21-0.11-0.29c-0.06-0.05-0.14-0.08-0.26-0.08H267.22z"/>
					</g>
					<g>
						<path class="st2" d="M278.48,287.52c0,0.43-0.15,0.81-0.45,1.12c-0.31,0.3-0.68,0.45-1.1,0.45c-0.43,0-0.81-0.15-1.12-0.45
							c-0.3-0.31-0.45-0.68-0.45-1.12v-23.33c0-0.42,0.15-0.79,0.45-1.1c0.31-0.3,0.68-0.45,1.12-0.45h1.28
							c0.49,0,0.89,0.19,1.2,0.57l17.19,20.87c0.08,0.11,0.2,0.14,0.35,0.08c0.14-0.04,0.2-0.14,0.2-0.28v-19.69
							c0-0.42,0.15-0.79,0.45-1.1c0.3-0.3,0.66-0.45,1.1-0.45s0.8,0.15,1.1,0.45c0.31,0.31,0.47,0.68,0.47,1.1v23.33
							c0,0.43-0.16,0.81-0.47,1.12c-0.3,0.3-0.66,0.45-1.1,0.45h-1.28c-0.49,0-0.89-0.19-1.2-0.57l-17.19-20.87
							c-0.1-0.11-0.21-0.14-0.35-0.1c-0.14,0.05-0.2,0.16-0.2,0.3V287.52z"/>
						<path class="st2" d="M298.7,289.59h-1.28c-0.63,0-1.18-0.26-1.59-0.75l-16.86-20.46v19.15c0,0.56-0.2,1.06-0.59,1.46
							c-0.85,0.82-2.12,0.78-2.92,0.02c-0.4-0.42-0.6-0.91-0.6-1.48v-23.33c0-0.55,0.2-1.04,0.59-1.44c0.42-0.4,0.91-0.6,1.48-0.6
							h1.28c0.63,0,1.18,0.26,1.59,0.75l16.86,20.46v-19.17c0-0.55,0.2-1.04,0.59-1.44c0.8-0.81,2.12-0.8,2.91-0.01
							c0.41,0.41,0.61,0.9,0.61,1.45v23.33c0,0.57-0.21,1.06-0.61,1.47C299.76,289.39,299.27,289.59,298.7,289.59z M278.79,267.03
							c0.24,0,0.45,0.1,0.61,0.28l17.21,20.89c0.22,0.26,0.48,0.39,0.81,0.39h1.28c0.3,0,0.54-0.1,0.74-0.3
							c0.22-0.22,0.32-0.46,0.32-0.76v-23.33c0-0.29-0.1-0.52-0.32-0.74c-0.41-0.41-1.08-0.41-1.49,0c-0.2,0.21-0.3,0.45-0.3,0.74
							v19.69c0,0.37-0.21,0.66-0.56,0.76c-0.33,0.12-0.67,0.03-0.89-0.26l-17.18-20.86c-0.22-0.26-0.48-0.39-0.81-0.39h-1.28
							c-0.31,0-0.55,0.1-0.77,0.31c-0.19,0.2-0.29,0.44-0.29,0.74v23.33c0,0.31,0.1,0.55,0.31,0.77c0.4,0.38,1.06,0.42,1.51-0.02
							c0.19-0.2,0.29-0.45,0.29-0.76v-19.67c0-0.35,0.19-0.64,0.52-0.77C278.6,267.05,278.7,267.03,278.79,267.03z M296.99,283.76
							L296.99,283.76C296.99,283.77,296.99,283.77,296.99,283.76z"/>
					</g>
					<g>
						<path class="st2" d="M313.97,265.76c-1.29,0-2.39,0.45-3.31,1.36c-0.91,0.91-1.36,2.01-1.36,3.29v2.34
							c0,0.53,0.26,0.79,0.77,0.79h19.45c0.43,0,0.8,0.15,1.1,0.45c0.31,0.3,0.47,0.66,0.47,1.1s-0.16,0.8-0.47,1.1
							c-0.3,0.31-0.66,0.47-1.1,0.47h-19.45c-0.51,0-0.77,0.26-0.77,0.77v7.78c0,0.51,0.26,0.77,0.77,0.77h19.45
							c0.43,0,0.8,0.15,1.1,0.45c0.31,0.31,0.47,0.68,0.47,1.1c0,0.43-0.16,0.81-0.47,1.12c-0.3,0.3-0.66,0.45-1.1,0.45h-21.77
							c-0.43,0-0.81-0.15-1.12-0.45c-0.3-0.31-0.45-0.68-0.45-1.12v-17.11c0-2.14,0.76-3.97,2.28-5.49
							c1.52-1.52,3.35-2.28,5.51-2.28h15.55c0.43,0,0.8,0.15,1.1,0.45c0.31,0.31,0.47,0.68,0.47,1.1c0,0.43-0.16,0.8-0.47,1.1
							c-0.3,0.31-0.66,0.47-1.1,0.47H313.97z"/>
						<path class="st2" d="M329.52,289.59h-21.77c-0.57,0-1.06-0.2-1.46-0.59c-0.4-0.42-0.6-0.91-0.6-1.48v-17.11
							c0-2.27,0.82-4.23,2.42-5.84c1.61-1.61,3.58-2.42,5.86-2.42h15.55c0.57,0,1.06,0.2,1.45,0.59c0.41,0.41,0.61,0.9,0.61,1.45
							c0,0.57-0.21,1.06-0.62,1.46c-0.38,0.4-0.87,0.61-1.44,0.61h-15.55c-1.16,0-2.13,0.4-2.96,1.22
							c-0.82,0.82-1.21,1.78-1.21,2.94v2.34c0,0.27,0.05,0.29,0.27,0.29h19.45c0.57,0,1.06,0.2,1.45,0.59
							c0.41,0.39,0.61,0.88,0.61,1.45c0,0.57-0.21,1.06-0.62,1.46c-0.38,0.4-0.87,0.61-1.44,0.61h-19.45
							c-0.24,0-0.27,0.03-0.27,0.27v7.78c0,0.24,0.03,0.27,0.27,0.27h19.45c0.57,0,1.06,0.2,1.45,0.59c0.41,0.41,0.61,0.9,0.61,1.45
							c0,0.57-0.21,1.06-0.61,1.47C330.57,289.39,330.08,289.59,329.52,289.59z M313.97,263.15c-2.03,0-3.72,0.7-5.15,2.13
							c-1.43,1.43-2.13,3.11-2.13,5.13v17.11c0,0.31,0.1,0.55,0.31,0.77c0.2,0.19,0.45,0.29,0.76,0.29h21.77
							c0.3,0,0.54-0.1,0.74-0.3c0.22-0.22,0.32-0.46,0.32-0.76c0-0.29-0.1-0.52-0.32-0.74c-0.21-0.21-0.44-0.3-0.74-0.3h-19.45
							c-0.8,0-1.27-0.48-1.27-1.27v-7.78c0-0.78,0.49-1.27,1.27-1.27h19.45c0.3,0,0.53-0.1,0.74-0.31c0.23-0.22,0.33-0.45,0.33-0.75
							c0-0.3-0.1-0.53-0.31-0.74c-0.21-0.21-0.45-0.31-0.75-0.31h-19.45c-0.8,0-1.27-0.48-1.27-1.29v-2.34
							c0-1.42,0.51-2.65,1.51-3.65c1.02-1,2.25-1.51,3.67-1.51h15.55c0.3,0,0.53-0.1,0.74-0.31c0.23-0.22,0.33-0.45,0.33-0.75
							c0-0.29-0.1-0.52-0.32-0.74c-0.21-0.21-0.44-0.3-0.74-0.3H313.97z"/>
					</g>
					<g>
						<path class="st2" d="M344.78,289.09c-2.15,0-3.99-0.76-5.51-2.28s-2.28-3.35-2.28-5.51v-10.89c0-2.14,0.76-3.97,2.28-5.49
							c1.52-1.52,3.35-2.28,5.51-2.28h9.33c2.14,0,3.98,0.76,5.51,2.28c1.52,1.52,2.28,3.35,2.28,5.49v10.89
							c0,2.15-0.76,3.99-2.28,5.51c-1.53,1.52-3.37,2.28-5.51,2.28H344.78z M344.78,265.76c-1.29,0-2.39,0.45-3.31,1.36
							c-0.91,0.91-1.36,2.01-1.36,3.29v10.89c0,1.29,0.45,2.39,1.36,3.31c0.92,0.91,2.03,1.36,3.31,1.36h9.33
							c1.29,0,2.38-0.45,3.29-1.36c0.92-0.92,1.38-2.03,1.38-3.31v-10.89c0-1.29-0.46-2.38-1.38-3.29
							c-0.91-0.91-2.01-1.36-3.29-1.36H344.78z"/>
						<path class="st2" d="M354.11,289.59h-9.33c-2.28,0-4.25-0.81-5.86-2.42c-1.61-1.61-2.42-3.58-2.42-5.86v-10.89
							c0-2.27,0.82-4.23,2.42-5.84c1.61-1.61,3.58-2.42,5.86-2.42h9.33c2.27,0,4.24,0.81,5.86,2.42c1.61,1.61,2.42,3.58,2.42,5.84
							v10.89c0,2.28-0.82,4.25-2.42,5.86C358.35,288.77,356.38,289.59,354.11,289.59z M344.78,263.15c-2.03,0-3.72,0.7-5.15,2.13
							c-1.43,1.43-2.13,3.11-2.13,5.13v10.89c0,2.04,0.7,3.72,2.13,5.15s3.12,2.13,5.15,2.13h9.33c2.02,0,3.71-0.7,5.16-2.13
							c1.43-1.43,2.13-3.12,2.13-5.15v-10.89c0-2.02-0.7-3.7-2.13-5.13c-1.45-1.43-3.13-2.13-5.16-2.13H344.78z M354.11,286.48
							h-9.33c-1.42,0-2.65-0.51-3.66-1.51c-1-1.02-1.51-2.25-1.51-3.67v-10.89c0-1.42,0.51-2.65,1.51-3.65
							c1.02-1,2.25-1.51,3.67-1.51h9.33c1.42,0,2.65,0.51,3.65,1.51c1.01,1,1.53,2.23,1.53,3.65v10.89c0,1.42-0.51,2.65-1.53,3.67
							C356.75,285.97,355.53,286.48,354.11,286.48z M344.78,266.26c-1.16,0-2.13,0.4-2.96,1.22c-0.82,0.82-1.21,1.78-1.21,2.94
							v10.89c0,1.16,0.4,2.13,1.22,2.96c0.83,0.81,1.79,1.21,2.96,1.21h9.33c1.16,0,2.12-0.4,2.94-1.22
							c0.83-0.83,1.24-1.8,1.24-2.96v-10.89c0-1.16-0.4-2.12-1.23-2.94c-0.82-0.82-1.78-1.22-2.94-1.22H344.78z"/>
					</g>
					<g>
						<path class="st2" d="M375.59,265.76c-1.29,0-2.39,0.45-3.31,1.36c-0.91,0.91-1.36,2.01-1.36,3.29v10.89
							c0,1.29,0.45,2.39,1.36,3.31c0.92,0.91,2.03,1.36,3.31,1.36h13.21c0.53,0,0.79-0.26,0.79-0.77v-3.9
							c0-1.29-0.46-2.38-1.38-3.29c-0.91-0.91-2.01-1.36-3.29-1.36h-6.22c-0.43,0-0.8-0.16-1.1-0.47c-0.31-0.3-0.47-0.66-0.47-1.1
							s0.16-0.8,0.47-1.1c0.3-0.3,0.66-0.45,1.1-0.45h6.22c2.16,0,3.99,0.76,5.51,2.28c1.52,1.52,2.28,3.35,2.28,5.49v6.22
							c0,0.43-0.16,0.81-0.47,1.12c-0.3,0.3-0.66,0.45-1.1,0.45h-15.55c-2.15,0-3.99-0.76-5.51-2.28s-2.28-3.35-2.28-5.51v-10.89
							c0-2.14,0.76-3.97,2.28-5.49c1.52-1.52,3.35-2.28,5.51-2.28h15.55c0.43,0,0.8,0.15,1.1,0.45c0.31,0.31,0.47,0.68,0.47,1.1
							c0,0.43-0.16,0.8-0.47,1.1c-0.3,0.31-0.66,0.47-1.1,0.47H375.59z"/>
						<path class="st2" d="M391.14,289.59h-15.55c-2.28,0-4.25-0.81-5.86-2.42c-1.61-1.61-2.42-3.58-2.42-5.86v-10.89
							c0-2.27,0.82-4.23,2.42-5.84c1.61-1.61,3.58-2.42,5.86-2.42h15.55c0.57,0,1.06,0.2,1.45,0.59c0.41,0.41,0.61,0.9,0.61,1.45
							c0,0.57-0.21,1.06-0.62,1.46c-0.38,0.4-0.87,0.61-1.44,0.61h-15.55c-1.16,0-2.13,0.4-2.96,1.22
							c-0.82,0.82-1.21,1.78-1.21,2.94v10.89c0,1.16,0.4,2.13,1.22,2.96c0.83,0.81,1.79,1.21,2.96,1.21h13.21
							c0.27,0,0.29-0.05,0.29-0.27v-3.9c0-1.16-0.4-2.12-1.23-2.94c-0.82-0.82-1.78-1.22-2.94-1.22h-6.22
							c-0.57,0-1.06-0.21-1.46-0.62c-0.4-0.38-0.61-0.87-0.61-1.44c0-0.57,0.21-1.06,0.62-1.46c0.39-0.39,0.87-0.59,1.44-0.59h6.22
							c2.28,0,4.25,0.82,5.86,2.42c1.61,1.61,2.42,3.57,2.42,5.84v6.22c0,0.57-0.21,1.06-0.61,1.47
							C392.2,289.39,391.71,289.59,391.14,289.59z M375.59,263.15c-2.03,0-3.72,0.7-5.15,2.13c-1.43,1.43-2.13,3.11-2.13,5.13v10.89
							c0,2.04,0.7,3.72,2.13,5.15s3.12,2.13,5.15,2.13h15.55c0.3,0,0.54-0.1,0.74-0.3c0.22-0.22,0.32-0.46,0.32-0.76v-6.22
							c0-2.02-0.7-3.7-2.13-5.13c-1.43-1.43-3.12-2.13-5.16-2.13h-6.22c-0.3,0-0.54,0.1-0.74,0.3c-0.22,0.21-0.32,0.45-0.32,0.74
							s0.1,0.53,0.31,0.74c0.22,0.23,0.46,0.33,0.75,0.33h6.22c1.42,0,2.65,0.51,3.65,1.51c1.01,1,1.53,2.23,1.53,3.65v3.9
							c0,0.8-0.48,1.27-1.29,1.27h-13.21c-1.42,0-2.65-0.51-3.66-1.51c-1-1.02-1.51-2.25-1.51-3.67v-10.89
							c0-1.42,0.51-2.65,1.51-3.65c1.02-1,2.25-1.51,3.67-1.51h15.55c0.3,0,0.53-0.1,0.74-0.31c0.23-0.22,0.33-0.45,0.33-0.75
							c0-0.29-0.1-0.52-0.32-0.74c-0.21-0.21-0.44-0.3-0.74-0.3H375.59z"/>
					</g>
				</g>
			</g>
		</g>
	</g>
</g>
</svg>
